<svg viewBox="0 0 494 161.83" xmlns="http://www.w3.org/2000/svg" xmlns:xlink="http://www.w3.org/1999/xlink"><clipPath id="a"><circle cx="78" cy="114.24" r="47.59"/></clipPath><clipPath id="b"><path d="m22.89 26.57v87.67a7.55 7.55 0 0 0 7.52 7.51h95.18a7.55 7.55 0 0 0 7.52-7.51v-87.67zm67.63 20h-25a5 5 0 1 1 0-10h25a5 5 0 0 1 0 10z"/></clipPath><clipPath id="c"><circle clip-path="url(#a)" cx="78" cy="114.24" r="47.59"/></clipPath><radialGradient id="d" cx="22.5825" cy="26.165" gradientUnits="userSpaceOnUse" r="142.52"><stop offset="0" stop-color="#fff" stop-opacity=".1"/><stop offset="1" stop-color="#fff" stop-opacity="0"/></radialGradient><path d="m.5.5h493v147h-493z" fill="#fff"/><path d="m493 1v146h-492v-146zm1-1h-494v148h494z" fill="#dadce0"/><g fill="#5f6368"><path d="m172.13 105.16a14 14 0 0 1 -9.8-23.72 13.36 13.36 0 0 1 9.8-4 12.27 12.27 0 0 1 9.73 4.33l-2.36 2.3a8.93 8.93 0 0 0 -7.37-3.37 10 10 0 0 0 -7.3 2.92 11.32 11.32 0 0 0 0 15.32 10 10 0 0 0 7.3 2.92 10.47 10.47 0 0 0 8.14-3.86l2.37 2.37a12.86 12.86 0 0 1 -4.55 3.45 14.12 14.12 0 0 1 -5.96 1.34z"/><path d="m189.08 78.08v8.36l-.15 2.56h.15a6.08 6.08 0 0 1 2.33-2.2 6.86 6.86 0 0 1 3.4-.9 6.41 6.41 0 0 1 5.19 2 8.25 8.25 0 0 1 1.77 5.55v11.1h-3.4v-10.55q0-5-4.48-5a4.23 4.23 0 0 0 -3.44 1.69 6.12 6.12 0 0 0 -1.33 3.9v10h-3.41v-26.51z"/><path d="m209.13 104.57h-3.4v-18.13h3.27v3h.15a4.67 4.67 0 0 1 2.11-2.44 6.13 6.13 0 0 1 3.13-1 6.36 6.36 0 0 1 2.55.45l-1.3 3.18a5.29 5.29 0 0 0 -1.81-.26 4.47 4.47 0 0 0 -3.27 1.46 5.27 5.27 0 0 0 -1.43 3.83z"/><path d="m219.64 88.6a9.52 9.52 0 0 1 13.39 0 10.36 10.36 0 0 1 0 13.8 9.5 9.5 0 0 1 -13.39 0 10.36 10.36 0 0 1 0-13.8zm2.53 11.66a5.74 5.74 0 0 0 8.11.22c.08-.07.15-.15.22-.22a7.3 7.3 0 0 0 0-9.51 5.72 5.72 0 0 0 -8.09-.24l-.24.24a7.34 7.34 0 0 0 0 9.51z"/><path d="m238.4 104.57v-18.13h3.26v2.56h.14a6.4 6.4 0 0 1 2.39-2.2 6.54 6.54 0 0 1 3.2-.9c2.81 0 4.73 1.16 5.74 3.47a7.1 7.1 0 0 1 6.32-3.47 5.81 5.81 0 0 1 4.85 2 8.8 8.8 0 0 1 1.63 5.57v11.1h-3.41v-10.57a5.91 5.91 0 0 0 -1-3.89 3.79 3.79 0 0 0 -3-1.15 4 4 0 0 0 -3.31 1.71 6.13 6.13 0 0 0 -1.31 3.88v10h-3.41v-10.55a5.91 5.91 0 0 0 -1-3.89 3.79 3.79 0 0 0 -3-1.15 4 4 0 0 0 -3.31 1.71 6.12 6.12 0 0 0 -1.32 3.88v10z"/><path d="m278.14 105.16a8.72 8.72 0 0 1 -6.68-2.74 9.67 9.67 0 0 1 -2.57-6.92 10 10 0 0 1 2.49-6.8 8.15 8.15 0 0 1 6.39-2.85 8.35 8.35 0 0 1 6.45 2.62 10 10 0 0 1 2.43 7v.63h-14.36a6.13 6.13 0 0 0 1.83 4.33 5.58 5.58 0 0 0 3.94 1.59 4.88 4.88 0 0 0 5-3.11l3 1.26a8.08 8.08 0 0 1 -2.92 3.54 8.53 8.53 0 0 1 -5 1.45zm4.86-11.84a4.81 4.81 0 0 0 -1.42-3 5.1 5.1 0 0 0 -3.89-1.32 4.85 4.85 0 0 0 -3.27 1.19 6.09 6.09 0 0 0 -1.91 3.18z"/><path d="m327.87 78.08-7.07 26.49h-3.48l-5.7-17.46h-.15l-5.69 17.46h-3.48l-7.37-26.49h3.56l5.58 20.83h.15l5.78-17.28h3.18l5.73 17.28h.09l5.29-20.83z"/><path d="m336.71 105.16a8.72 8.72 0 0 1 -6.68-2.74 9.67 9.67 0 0 1 -2.57-6.92 9.94 9.94 0 0 1 2.5-6.8 8.1 8.1 0 0 1 6.38-2.85 8.35 8.35 0 0 1 6.45 2.62 10 10 0 0 1 2.43 7v.63h-14.36a6.13 6.13 0 0 0 1.83 4.33 5.58 5.58 0 0 0 3.94 1.59 4.87 4.87 0 0 0 5-3.11l3 1.26a8.16 8.16 0 0 1 -2.93 3.54 8.52 8.52 0 0 1 -4.99 1.45zm4.88-11.84a4.81 4.81 0 0 0 -1.42-3 5.11 5.11 0 0 0 -3.91-1.32 4.9 4.9 0 0 0 -3.26 1.14 6.09 6.09 0 0 0 -1.91 3.18z"/><path d="m357.91 105.16a7.79 7.79 0 0 1 -3.72-.89 6.13 6.13 0 0 1 -2.46-2.22h-.15v2.52h-3.25v-26.49h3.4v8.36l-.15 2.56h.15a6.41 6.41 0 0 1 2.46-2.22 7.78 7.78 0 0 1 3.72-.88 8 8 0 0 1 6.09 2.72 10.57 10.57 0 0 1 0 13.77 8 8 0 0 1 -6.09 2.77zm-.56-3.11a5.44 5.44 0 0 0 4.07-1.79 7.47 7.47 0 0 0 0-9.51 5.53 5.53 0 0 0 -7.81-.34c-.12.11-.23.22-.34.34a7.6 7.6 0 0 0 0 9.55 5.4 5.4 0 0 0 4.08 1.75z"/><path d="m384.73 105.16a9.94 9.94 0 0 1 -5.64-1.89 8.7 8.7 0 0 1 -3.61-5.27l3.11-1.25a7.16 7.16 0 0 0 2.28 3.68 5.67 5.67 0 0 0 3.86 1.49 6.21 6.21 0 0 0 3.8-1.16 3.74 3.74 0 0 0 1.57-3.16 4.11 4.11 0 0 0 -1.57-3.43 16.43 16.43 0 0 0 -5-2.24 13.28 13.28 0 0 1 -5.33-2.86 6 6 0 0 1 -1.81-4.5 6.56 6.56 0 0 1 2.26-5 8.31 8.31 0 0 1 5.88-2.11 8.47 8.47 0 0 1 5.47 1.71 7.78 7.78 0 0 1 2.74 3.68l-3.11 1.3a4.6 4.6 0 0 0 -1.63-2.34 5.24 5.24 0 0 0 -3.39-1.07 5.32 5.32 0 0 0 -3.35 1.09 3.35 3.35 0 0 0 -1.38 2.72 3.08 3.08 0 0 0 1.27 2.5 12.27 12.27 0 0 0 3.76 1.83 32.14 32.14 0 0 1 3.27 1.22 15.57 15.57 0 0 1 2.67 1.57 6.12 6.12 0 0 1 2 2.45 7.88 7.88 0 0 1 .69 3.38 7.34 7.34 0 0 1 -.8 3.44 6.37 6.37 0 0 1 -2.11 2.41 10.63 10.63 0 0 1 -5.94 1.81z"/><path d="m404.05 104.86a5.26 5.26 0 0 1 -5.84-4.6 5.35 5.35 0 0 1 0-1.2v-9.51h-3.21v-3.11h3.18v-5.55h3.41v5.55h4.41v3.11h-4.44v9.25c0 2 .81 3 2.44 3a3.6 3.6 0 0 0 1.55-.3l1.19 2.92a6.82 6.82 0 0 1 -2.69.44z"/><path d="m410.71 88.6a9.52 9.52 0 0 1 13.39 0 10.36 10.36 0 0 1 0 13.8 9.5 9.5 0 0 1 -13.39 0 10.36 10.36 0 0 1 0-13.8zm2.53 11.66a5.74 5.74 0 0 0 8.11.22l.22-.22a7.3 7.3 0 0 0 0-9.51 5.72 5.72 0 0 0 -8.09-.24c-.08.07-.16.16-.24.24a7.34 7.34 0 0 0 0 9.51z"/><path d="m432.87 104.57h-3.4v-18.13h3.25v3h.15a4.63 4.63 0 0 1 2.13-2.44 6.1 6.1 0 0 1 3.13-1 6.36 6.36 0 0 1 2.55.45l-1.3 3.18a5.29 5.29 0 0 0 -1.81-.26 4.49 4.49 0 0 0 -3.28 1.46 5.26 5.26 0 0 0 -1.42 3.83z"/><path d="m450 105.16a8.76 8.76 0 0 1 -6.68-2.74 9.71 9.71 0 0 1 -2.57-6.92 9.94 9.94 0 0 1 2.5-6.8 8.1 8.1 0 0 1 6.38-2.85 8.37 8.37 0 0 1 6.46 2.62 10 10 0 0 1 2.42 7v.63h-14.35a6 6 0 0 0 1.83 4.33 5.58 5.58 0 0 0 3.94 1.59 4.87 4.87 0 0 0 4.95-3.11l3 1.26a8.13 8.13 0 0 1 -2.92 3.54 8.5 8.5 0 0 1 -4.96 1.45zm4.88-11.84a4.76 4.76 0 0 0 -1.42-3 5.12 5.12 0 0 0 -3.9-1.41 4.93 4.93 0 0 0 -3.28 1.19 6 6 0 0 0 -1.9 3.18z"/><path d="m160.34 63.44 7.56-20h2.91l7.56 20h-2.86l-1.93-5.44h-8.43l-2 5.43zm5.66-7.84h6.66l-3.27-9.05h-.11z"/><path d="m183 63.44-5.54-13.72h2.8l4 10.64h.05l4.09-10.64h2.75l-5.6 13.72z"/><path d="m196.88 63.89a5.43 5.43 0 0 1 -3.66-1.26 4.16 4.16 0 0 1 -1.47-3.34 4.1 4.1 0 0 1 1.74-3.51 7 7 0 0 1 4.28-1.27 7.43 7.43 0 0 1 3.73.84v-.35a3.08 3.08 0 0 0 -1-2.42 3.79 3.79 0 0 0 -2.55-.91 4 4 0 0 0 -2 .53 2.7 2.7 0 0 0 -1.24 1.46l-2.36-1a5.35 5.35 0 0 1 1.88-2.28 6 6 0 0 1 3.7-1 6.28 6.28 0 0 1 4.36 1.54 5.49 5.49 0 0 1 1.71 4.23v8.29h-2.5v-1.91h-.12a5 5 0 0 1 -4.5 2.36zm.42-2.36a4.12 4.12 0 0 0 2.89-1.19 3.68 3.68 0 0 0 1.31-2.81 5.05 5.05 0 0 0 -3.28-.9 4.27 4.27 0 0 0 -2.83.82 2.44 2.44 0 0 0 -.95 1.9 1.85 1.85 0 0 0 .87 1.6 3.51 3.51 0 0 0 1.99.58z"/><path d="m209.67 46.27a1.81 1.81 0 1 1 .53-1.27 1.73 1.73 0 0 1 -.53 1.27zm0 17.17h-2.57v-13.72h2.57z"/><path d="m215.61 63.44h-2.61v-20h2.58z"/><path d="m222.94 63.89a5.45 5.45 0 0 1 -3.65-1.26 4.16 4.16 0 0 1 -1.47-3.34 4.1 4.1 0 0 1 1.74-3.51 7 7 0 0 1 4.28-1.27 7.39 7.39 0 0 1 3.72.84v-.35a3.08 3.08 0 0 0 -1-2.42 3.79 3.79 0 0 0 -2.55-.91 4 4 0 0 0 -2 .53 2.76 2.76 0 0 0 -1.25 1.46l-2.35-1a5.35 5.35 0 0 1 1.88-2.28 6 6 0 0 1 3.69-1 6.3 6.3 0 0 1 4.37 1.54 5.5 5.5 0 0 1 1.65 4.23v8.29h-2.47v-1.91h-.11a5.06 5.06 0 0 1 -4.48 2.36zm.42-2.36a4.14 4.14 0 0 0 2.9-1.19 3.67 3.67 0 0 0 1.3-2.81 5 5 0 0 0 -3.27-.9 4.16 4.16 0 0 0 -2.83.82 2.42 2.42 0 0 0 -1 1.9 1.85 1.85 0 0 0 .87 1.6 3.48 3.48 0 0 0 2.03.58z"/><path d="m240.19 63.89a5.84 5.84 0 0 1 -2.81-.68 4.64 4.64 0 0 1 -1.86-1.68h-.12v1.91h-2.46v-20h2.58v6.33l-.12 1.9h.12a4.7 4.7 0 0 1 1.86-1.67 5.74 5.74 0 0 1 2.81-.67 6 6 0 0 1 4.59 2.1 8 8 0 0 1 0 10.42 6 6 0 0 1 -4.59 2.04zm-.42-2.36a4.11 4.11 0 0 0 3.08-1.35 5.67 5.67 0 0 0 0-7.2 4.19 4.19 0 0 0 -5.92-.25 3 3 0 0 0 -.25.25 5.72 5.72 0 0 0 0 7.22 4.08 4.08 0 0 0 3.09 1.33z"/><path d="m251.5 63.44h-2.57v-20h2.57z"/><path d="m260.72 63.89a6.62 6.62 0 0 1 -5.06-2.08 7.33 7.33 0 0 1 -1.94-5.23 7.52 7.52 0 0 1 1.89-5.15 6.14 6.14 0 0 1 4.83-2.16 6.3 6.3 0 0 1 4.88 2 7.52 7.52 0 0 1 1.84 5.32v.47h-10.87a4.67 4.67 0 0 0 1.39 3.28 4.2 4.2 0 0 0 3 1.2 3.69 3.69 0 0 0 3.75-2.35l2.3 1a6.15 6.15 0 0 1 -2.21 2.68 6.39 6.39 0 0 1 -3.8 1.02zm3.69-9a3.55 3.55 0 0 0 -1.08-2.24 3.85 3.85 0 0 0 -2.95-1.07 3.65 3.65 0 0 0 -2.48.9 4.62 4.62 0 0 0 -1.44 2.41z"/><path d="m278.47 46.27a1.82 1.82 0 1 1 0-2.57 1.82 1.82 0 0 1 0 2.57zm0 17.17h-2.58v-13.72h2.58z"/><path d="m284.29 49.72v1.9h.11a4.52 4.52 0 0 1 1.77-1.62 5.16 5.16 0 0 1 2.57-.69 4.81 4.81 0 0 1 3.89 1.57 6.22 6.22 0 0 1 1.37 4.12v8.4h-2.6v-8q0-3.81-3.39-3.81a3.17 3.17 0 0 0 -2.6 1.28 4.59 4.59 0 0 0 -1 3v7.59h-2.57v-13.74z"/><path d="m309.1 63.66a4 4 0 0 1 -4.43-3.52 4.22 4.22 0 0 1 0-.87v-7.2h-2.41v-2.35h2.41v-4.2h2.58v4.2h3.36v2.35h-3.36v7c0 1.49.62 2.24 1.85 2.24a2.77 2.77 0 0 0 1.17-.22l.9 2.21a5.23 5.23 0 0 1 -2.07.36z"/><path d="m315.79 43.39v6.33l-.11 1.9h.11a4.5 4.5 0 0 1 1.76-1.62 5.06 5.06 0 0 1 2.58-.69 4.81 4.81 0 0 1 3.87 1.53 6.19 6.19 0 0 1 1.34 4.2v8.4h-2.57v-8q0-3.81-3.39-3.81a3.17 3.17 0 0 0 -2.6 1.28 4.59 4.59 0 0 0 -1 3v7.59h-2.58v-20z"/><path d="m334.6 63.89a6.6 6.6 0 0 1 -5.05-2.08 7.29 7.29 0 0 1 -1.95-5.23 7.52 7.52 0 0 1 1.89-5.15 6.14 6.14 0 0 1 4.83-2.16 6.32 6.32 0 0 1 4.89 2 7.51 7.51 0 0 1 1.79 5.31v.47h-10.82a4.65 4.65 0 0 0 1.39 3.28 4.2 4.2 0 0 0 3 1.2 3.69 3.69 0 0 0 3.75-2.35l2.3 1a6.18 6.18 0 0 1 -2.22 2.68 6.4 6.4 0 0 1 -3.8 1.03zm3.7-9a3.68 3.68 0 0 0 -1.08-2.24 3.87 3.87 0 0 0 -3-1.07 3.65 3.65 0 0 0 -2.48.9 4.62 4.62 0 0 0 -1.44 2.41z"/></g><g clip-path="url(#b)"><path d="m22.89 26.57h110.22v95.18h-110.22z" fill="#eee"/></g><g clip-path="url(#b)"><path d="m90.52 36.59h-25a5 5 0 1 0 0 10h25a5 5 0 1 0 0-10z" fill="#fff"/></g><g clip-path="url(#b)"><g clip-path="url(#c)"><path d="m38 66.65v58.4h21.26l18.74-32.45h47.59v-25.95zm0 0v58.4h21.26l18.74-32.45h47.59v-25.95z" fill="#db4437"/><path d="m30.41 161.83h45.3l21-21v-15.77h-37.45l-28.85-49.49zm0 0h45.3l21-21v-15.77h-37.45l-28.85-49.49z" fill="#0f9d58"/><path d="m78 92.6 18.74 32.45-21 36.78h49.88v-69.23zm0 0 18.74 32.45-21 36.78h49.88v-69.23z" fill="#ffcd40"/><circle cx="78" cy="114.24" fill="#f1f1f1" r="21.64"/><circle cx="78" cy="114.24" fill="#4285f4" r="17.31"/></g><g clip-path="url(#b)"><path d="m22.89 26.57h110.22v47.59h-110.22z" fill="#212121" fill-opacity=".05"/></g><path d="m22.89 73.54h110.22v.62h-110.22z" fill="#212121" fill-opacity=".02"/><path d="m22.89 74.16h110.22v.63h-110.22z" fill="#fff" fill-opacity=".05"/><path d="m90.52 46.61h-25a5 5 0 0 1 -5-4.7 1.71 1.71 0 0 0 0 .32 5 5 0 0 0 5 5h25a5 5 0 0 0 5-5 1.71 1.71 0 0 0 0-.32 5 5 0 0 1 -5 4.7zm-67.63-20v.63h110.22v-.63z" fill="#212121" fill-opacity=".02"/><path d="m65.48 36.59h25a5 5 0 0 1 5 4.7v-.29a5 5 0 0 0 -5-5h-25a5 5 0 0 0 -5 5 1.71 1.71 0 0 0 0 .32 5 5 0 0 1 5-4.73zm60.11 84.54h-95.18a7.54 7.54 0 0 1 -7.52-7.52v.63a7.55 7.55 0 0 0 7.52 7.51h95.18a7.55 7.55 0 0 0 7.52-7.51v-.63a7.54 7.54 0 0 1 -7.52 7.52z" fill="#231f20" fill-opacity=".1"/><path d="m22.89 26.57v87.67a7.55 7.55 0 0 0 7.52 7.51h95.18a7.55 7.55 0 0 0 7.52-7.51v-87.67zm67.63 20h-25a5 5 0 1 1 0-10h25a5 5 0 0 1 0 10z" fill="url(#d)"/><path d="m17.89 14.05h120.22v120.23h-120.22z" fill="none"/></g></svg>