<?xml version="1.0" standalone="no"?>
<svg t="1649162806411" viewBox="0 0 1024 1024" version="1.1" xmlns="http://www.w3.org/2000/svg" p-id="1825" xmlns:xlink="http://www.w3.org/1999/xlink">
  <path d="M810.666667 938.666667H213.333333a128 128 0 0 1-128-128V213.333333a128 128 0 0 1 128-128h597.333334a128 128 0 0 1 128 128v597.333334a128 128 0 0 1-128 128zM213.333333 170.666667a42.666667 42.666667 0 0 0-42.666666 42.666666v597.333334a42.666667 42.666667 0 0 0 42.666666 42.666666h597.333334a42.666667 42.666667 0 0 0 42.666666-42.666666V213.333333a42.666667 42.666667 0 0 0-42.666666-42.666666z" p-id="1826"></path>
  <path d="M384 938.666667a42.666667 42.666667 0 0 1-42.666667-42.666667V128a42.666667 42.666667 0 0 1 85.333334 0v768a42.666667 42.666667 0 0 1-42.666667 42.666667z" p-id="1827"></path>
</svg>