<svg xmlns="http://www.w3.org/2000/svg" viewBox="0 0 225 225">
  <path d="M9,189.78V98.22A26.22,26.22,0,0,1,35.22,72h91.56A26.22,26.22,0,0,1,153,98.22v91.56A26.22,26.22,0,0,1,126.78,216H35.22A26.22,26.22,0,0,1,9,189.78Zm18-85.65v79.74A14.13,14.13,0,0,0,41.13,198h79.74A14.13,14.13,0,0,0,135,183.87V104.13A14.13,14.13,0,0,0,120.87,90H41.13A14.13,14.13,0,0,0,27,104.13Z" />
  <path d="M54,117h54a9,9,0,0,1,9,9h0a9,9,0,0,1-9,9H54a9,9,0,0,1-9-9h0A9,9,0,0,1,54,117Z" />
  <rect x="45" y="153" width="72" height="18" rx="9" />
  <path d="M72,54V36.43A27.43,27.43,0,0,1,99.43,9h90.09A26.47,26.47,0,0,1,216,35.48v90.09A27.43,27.43,0,0,1,188.57,153H171a9,9,0,0,1-9-9h0a9,9,0,0,1,9-9h13.32A13.67,13.67,0,0,0,198,121.32V40.68A13.67,13.67,0,0,0,184.32,27H103.68A13.67,13.67,0,0,0,90,40.68V54a9,9,0,0,1-9,9h0A9,9,0,0,1,72,54Z" />
</svg>
