<svg viewBox="0 0 1024 1024" xmlns="http://www.w3.org/2000/svg"><path d="m550.83614777 257.95911111c-9.70903666-9.70903666-24.27259221-14.56355555-38.83614777-14.56355556s-29.12711111 4.8545189-38.83614777 14.56355556l-237.87140778 233.01688888c-19.41807445 19.41807445-19.41807445 53.39970333 0 77.67229668s58.25422222 19.41807445 77.67229667 0l145.63555555-145.63555555v500.01540664c0 29.12711111 19.41807445 48.54518557 48.54518443 48.54518558s48.54518557-19.41807445 48.54518557-48.54518558v-500.01540664l145.63555555 145.63555555c19.41807445 19.41807445 58.25422222 19.41807445 77.67229668 0s19.41807445-53.39970333 0-77.67229668zm247.58044444-208.74429668h-577.68770332c-29.12711111 0-48.54518557 19.41807445-48.54518556 48.54518556s19.41807445 48.54518557 48.54518556 48.54518558h577.68770332c29.12711111 0 48.54518557-19.41807445 48.54518557-48.54518558s-24.27259221-48.54518557-48.54518557-48.54518556z"/></svg>