<?xml version="1.0" encoding="utf-8"?>
<svg version="1.1" xmlns="http://www.w3.org/2000/svg" xmlns:xlink="http://www.w3.org/1999/xlink" x="0px" y="0px" viewBox="0 0 1024 1024" style="enable-background:new 0 0 1024 1024;" xml:space="preserve">
  <path d="M810.7,85.3H213.3c-70.7,0-128,57.3-128,128v597.3c0,70.7,57.3,128,128,128h597.3c70.7,0,128-57.3,128-128V213.3
	C938.7,142.6,881.4,85.3,810.7,85.3z M341.3,853.3h-128c-23.6,0-42.7-19.1-42.7-42.7V213.3c0-23.6,19.1-42.7,42.7-42.7h128V853.3z
	 M853.3,810.7c0,23.6-19.1,42.7-42.7,42.7h-384V170.7h384c23.6,0,42.7,19.1,42.7,42.7V810.7z" />
</svg>