<?xml version="1.0" standalone="no"?><!DOCTYPE svg PUBLIC "-//W3C//DTD SVG 1.1//EN" "http://www.w3.org/Graphics/SVG/1.1/DTD/svg11.dtd">
<svg t="1621481643382" class="icon" viewBox="0 0 1024 1024" version="1.1"
  xmlns="http://www.w3.org/2000/svg" p-id="14396" width="64" height="64"
  xmlns:xlink="http://www.w3.org/1999/xlink">
  <path d="M1017.1904 482.304C905.9072 247.7824 737.6128 129.7408 512 129.7408c-225.7152 0-393.8816 118.016-505.216 352.64a70.8864 70.8864 0 0 0 0 60.4928C118.1184 777.4208 286.3872 895.4624 512 895.4624c225.6896 0 393.9072-118.016 505.1904-352.64a70.5792 70.5792 0 0 0 0-60.5184zM512 810.9056c-189.44 0-328.1152-96.0512-425.9584-298.2912C183.8848 310.4 322.56 214.3232 512 214.3232c189.3888 0 328.0896 96.0768 426.0096 298.2912-97.7664 202.24-236.4672 298.2912-426.0096 298.2912z" p-id="14397"></path>
  <path d="M507.2896 305.8944a206.6944 206.6944 0 1 0 206.72 206.6944 206.72 206.72 0 0 0-206.72-206.6944z m0 338.2528a131.4816 131.4816 0 0 1-131.5328-131.5584 131.4816 131.4816 0 0 1 131.5328-131.5328 131.4816 131.4816 0 0 1 131.5328 131.5328 131.4816 131.4816 0 0 1-131.5328 131.5584z" p-id="14398"></path>
</svg>