<svg xmlns="http://www.w3.org/2000/svg" viewBox="0 0 100 100">
  <g fill="currentColor">
    <path d="m76 50q0 .6383-.0313 1.2758-.0313.6375-.0939 1.2726-.0626.6352-.1562 1.2666-.0937.6313-.2182 1.2573-.1245.626-.2796 1.2452-.1551.6191-.3404 1.2299-.1852.6108-.4003 1.2117-.215.601-.4592 1.1907-.2443.5896-.5172 1.1666-.2729.577-.5738 1.1399-.3008.5629-.629 1.1104-.3281.5474-.6827 1.0781-.3546.5307-.7348 1.0434-.3802.5126-.7851 1.006-.4049.4934-.8336.9663-.4286.4729-.8799.9243-.4514.4513-.9243.8799-.4729.4287-.9663.8336-.4934.4049-1.006.7851-.5127.3802-1.0434.7348-.5307.3546-1.0781.6827-.5475.3282-1.1104.629-.5629.3009-1.1399.5738-.577.2729-1.1666.5172-.5897.2442-1.1907.4592-.6009.2151-1.2117.4003-.6108.1853-1.2299.3404-.6192.1551-1.2452.2796-.626.1245-1.2573.2182-.6314.0936-1.2666.1562-.6351.0626-1.2726.0939-.6375.0313-1.2758.0313-.6383 0-1.2758-.0313-.6375-.0313-1.2726-.0939-.6352-.0626-1.2666-.1562-.6314-.0937-1.2574-.2182-.626-.1245-1.2451-.2796-.6191-.1551-1.2299-.3404-.6108-.1852-1.2117-.4003-.601-.215-1.1907-.4592-.5897-.2443-1.1666-.5172-.577-.2729-1.1399-.5738-.5629-.3008-1.1104-.629-.5474-.3281-1.0781-.6827-.5307-.3546-1.0434-.7348-.51264-.3802-1.00603-.7851-.49338-.4049-.9663-.8336-.47293-.4286-.92425-.8799-.45132-.4514-.87995-.9243-.42863-.4729-.83354-.9663-.40491-.4934-.78513-1.006-.38021-.5127-.73481-1.0434-.3546-.5307-.68273-1.0781-.32814-.5475-.62901-1.1104-.30088-.5629-.57377-1.1399-.2729-.577-.51715-1.1666-.24425-.5897-.45928-1.1907-.21502-.6009-.4003-1.2117-.185277-.6108-.340363-1.2299-.155085-.6192-.279604-1.2452-.124519-.626-.218172-1.2573-.093653-.6314-.156214-1.2666-.0625607-.6351-.0938789-1.2726-.0313181-.6375-.0313181-1.2758 0-.6383.0313181-1.2758.0313182-.6375.0938789-1.2726.062561-.6352.156214-1.2666.093653-.6314.218172-1.2574.124519-.626.279604-1.2451.155086-.6191.340363-1.2299.18528-.6108.4003-1.2117.21503-.601.45928-1.1907.24425-.5897.51715-1.1666.27289-.577.57377-1.1399.30087-.5629.62901-1.1104.32813-.5474.68273-1.0781.3546-.5307.73481-1.0434.38022-.51264.78513-1.00603.40491-.49338.83354-.9663.42863-.47293.87995-.92425.45132-.45132.92425-.87995.47292-.42863.9663-.83354.49339-.40491 1.00603-.78513.5127-.38021 1.0434-.73481.5307-.3546 1.0781-.68273.5475-.32814 1.1104-.62901.5629-.30088 1.1399-.57377.5769-.2729 1.1666-.51715.5897-.24425 1.1907-.45928.6009-.21502 1.2117-.4003.6108-.185277 1.2299-.340363.6191-.155085 1.2451-.279604.626-.124519 1.2574-.218172.6314-.093653 1.2666-.156214.6351-.0625607 1.2726-.0938789.6375-.0313181 1.2758-.0313181.6383 0 1.2758.0313181.6375.0313182 1.2726.0938789.6352.062561 1.2666.156214.6313.093653 1.2573.218172.626.124519 1.2452.279604.6191.155086 1.2299.340363.6108.18528 1.2117.4003.601.21503 1.1907.45928.5896.24425 1.1666.51715.577.27289 1.1399.57377.5629.30087 1.1104.62901.5474.32813 1.0781.68273.5307.3546 1.0434.73481.5126.38022 1.006.78513.4934.40491.9663.83354.4729.42863.9243.87995.4513.45132.8799.92425.4287.47292.8336.9663.4049.49339.7851 1.00603.3802.5127.7348 1.0434.3546.5307.6827 1.0781.3282.5475.629 1.1104.3009.5629.5738 1.1399.2729.5769.5172 1.1666.2442.5897.4592 1.1907.2151.6009.4003 1.2117.1853.6108.3404 1.2299.1551.6191.2796 1.2451.1245.626.2182 1.2574.0936.6314.1562 1.2666.0626.6351.0939 1.2726.0313.6375.0313 1.2758z"/>
    <path d="m50 0c1.9266-.00000042 3.4884 1.5618 3.4884 3.48837l-.0003 11.62763c0 1.9266-1.5618 3.4884-3.4884 3.4884s-3.4884-1.5618-3.4884-3.4884l.0003-11.62763c0-1.92657 1.5618-3.48836958 3.4884-3.48837zm-35.3535 14.6465c1.362-1.3602 3.5683-1.3602 4.9302 0l8.8046 8.8004c1.3227 1.3681 1.305 3.5431-.04 4.8893-1.3449 1.3462-3.5208 1.3665-4.8902.0451l-8.8046-8.8046c-1.3602-1.3619-1.3602-3.5682 0-4.9302zm70.707 0c1.3602 1.362 1.3602 3.5683 0 4.9302l-8.8044 8.8046c-1.3744 1.2808-3.5166 1.2433-4.845-.0851-1.3284-1.3285-1.3659-3.4706-.0852-4.8451l8.8043-8.8046c1.362-1.3602 3.5683-1.3602 4.9303 0zm-85.3535 35.3535c-.00000042-1.9266 1.5618-3.4884 3.48837-3.4884l11.62763-.0003c1.9266 0 3.4884 1.5618 3.4884 3.4884s-1.5618 3.4884-3.4884 3.4884l-11.62763.0003c-1.92657 0-3.48836958-1.5618-3.48837-3.4884zm81.3951-.0003c0-1.9266 1.5618-3.4884 3.4883-3.4884l11.6282.0003c1.9266 0 3.4884 1.5618 3.4884 3.4884s-1.5618 3.4884-3.4884 3.4884l-11.6282-.0003c-1.9265 0-3.4883-1.5618-3.4883-3.4884zm-9.7762 21.6192c1.362-1.3602 3.5683-1.3602 4.9302 0l8.8044 8.8044c1.4448 1.3462 1.4849 3.6223.0885 5.0187s-3.6725 1.3563-5.0187-.0885l-8.8044-8.8044c-1.3602-1.3619-1.3602-3.5682 0-4.9302zm-43.2376 0c1.3603 1.362 1.3603 3.5683 0 4.9302l-8.8046 8.8044c-1.3462 1.4448-3.6223 1.4849-5.0187.0885s-1.3563-3.6725.0885-5.0187l8.8004-8.8044c1.3624-1.3633 3.572-1.3633 4.9344 0zm21.6184 9.7762c1.9266 0 3.4884 1.5618 3.4884 3.4883l.0003 11.6282c0 1.9266-1.5618 3.4884-3.4884 3.4884s-3.4884-1.5618-3.4884-3.4884l-.0003-11.6282c0-1.9265 1.5618-3.4883 3.4884-3.4883z" fill-rule="evenodd"/>
  </g>
</svg>
