<svg fill="none" viewBox="0 0 32 28" xmlns="http://www.w3.org/2000/svg"><path d="m31.2461 19.6292c.2917-.0014.5578.166.6822.4293.1245.2632.0846.5745-.1021.7982l-1.4102 1.6864-1.4103 1.7463-2.0004 2.4448-.8102.9979c-.2998.3572-.8504.3572-1.1502 0l-.8102-.9979-2.4004-2.7841-1.2003-1.437-1.4102-1.6564c-.1867-.2237-.2266-.535-.1021-.7982.1244-.2633.3905-.4307.6822-.4293h1.2702c.4198 0 .7602-.3395.7602-.7583v-6.2069c.0019-.317-.1966-.6009-.4955-.7085s-.6333-.0157-.8348.2295l-1.2602 1.4968-4.3109 5.1591c-.3036.3578-.8566.3578-1.1602 0l-4.31085-5.1591-1.00019-1.1974c-.20043-.2554-.54293-.3529-.84825-.2415-.30533.1114-.50399.4063-.49202.7304v10.9768c0 .4189-.34033.7584-.76015.7584h-5.611093c-.415871-.0054-.750147-.3434-.750147-.7584v-23.220844c.0159369-.403279.345652-.7234611.750147-.72845827h6.671303c.22667-.00315166.4416.10036727.58011.27940927l5.05104 6.037223.7201.85818c.3036.35775.8566.35775 1.1602 0l.7102-.85818 5.061-6.06716c.1445-.1678527.3585-.2598851.5801-.24947227h6.9213c.4183-.00003664.7557.34116627.7502.75839527v18.111707c0 .4188.3403.7583.7601.7583z" fill="#35363a"/></svg>