<svg fill="none" viewBox="0 0 35 31" xmlns="http://www.w3.org/2000/svg"><path d="m32.7461 21.1292c.2917-.0014.5578.166.6822.4293.1245.2632.0846.5745-.1021.7982l-1.4102 1.6864-1.4103 1.7463-2.0004 2.4448-.8102.9979c-.2998.3572-.8504.3572-1.1502 0l-.8102-.9979-2.4004-2.7841-1.2003-1.437-1.4102-1.6564c-.1867-.2237-.2266-.535-.1021-.7982.1244-.2633.3905-.4307.6822-.4293h1.2702c.4198 0 .7602-.3395.7602-.7583v-6.2069c.0019-.317-.1966-.6009-.4955-.7085s-.6333-.0157-.8348.2295l-1.2602 1.4968-4.3109 5.1591c-.3036.3578-.8566.3578-1.1602 0l-4.31085-5.1591-1.00019-1.1974c-.20043-.2554-.54293-.3529-.84825-.2415-.30533.1114-.50399.4063-.49202.7304v10.9768c0 .4189-.34033.7584-.76015.7584h-5.611093c-.415871-.0054-.750147-.3434-.750147-.7584v-23.220844c.0159369-.403279.345652-.7234611.750147-.72845827h6.671303c.22667-.00315166.4416.10036727.58011.27940927l5.05104 6.037223.7201.85818c.3036.35775.8566.35775 1.1602 0l.7102-.85818 5.061-6.06716c.1445-.1678527.3585-.2598851.5801-.24947227h6.9213c.4183-.00003664.7557.34116627.7502.75839527v18.111707c0 .4188.3403.7583.7601.7583z" fill="#35363a"/><path d="m0 25.4501v-23.250471l.00117-.029604q.03563-.901605.683204-1.530456.646209-.627529 1.547243-.638659l6.689833-.00011q1.07138-.01504 1.74549.834718l5.03606 6.019392.1458.17375.1386-.16752 5.0648-6.07171q.707-.82133 1.76-.78863h6.8933q.9398-.00008 1.6005.667875.6621.669432.6495 1.610573l.0002 17.349952h.7904q.6511-.0012 1.2026.3458.5555.3494.8358.9425.2807.5938.1973 1.2452-.0833.6512-.5041 1.1553l-1.4111 1.6873-1.394 1.7265-2.0064 2.4523-.8065.9934q-.6901.8225-1.7397.8225-1.0495 0-1.724-.8035l-.8117-.9995-2.3861-2.7674-1.2154-1.4549-1.4012-1.6457q-.4301-.5151-.5134-1.1663-.0834-.6514.1973-1.2452.2803-.5931.8358-.9425.5546-.349 1.21-.3457h.523v-3.4132l-4.2503 5.0866q-.6845.8065-1.7312.8065-1.0467 0-1.7237-.7977l-4.00771-4.7961v8.9347q.00001.9365-.6632 1.5982-.66178.6602-1.59695.6602h-5.611093q-.946089-.0122-1.59747-.6708-.652677-.6598-.652677-1.5876zm23.146-10.7927q.0085-.0099.017-.0201zm2.5887 13.5768.8102.9979c.2998.3572.8504.3572 1.1502 0l.8102-.9979 2.0004-2.4448 1.4103-1.7463 1.4102-1.6864c.1867-.2237.2266-.535.1021-.7982-.1244-.2633-.3905-.4307-.6822-.4293h-1.5303c-.4198 0-.7601-.3395-.7601-.7583v-18.111707c.0055-.417229-.3319-.75843191-.7502-.75839527h-6.9213c-.2216-.01041283-.4356.08161957-.5801.24947227l-5.061 6.06716-.7102.85818c-.3036.35775-.8566.35775-1.1602 0l-.7201-.85818-5.05104-6.037223c-.13851-.179042-.35344-.28256093-.58011-.27940927h-6.671303c-.404495.00499717-.7342101.32517927-.750147.72845827v23.220844c0 .415.334276.753.750147.7584h5.611093c.41982 0 .76015-.3395.76015-.7584v-10.9768c-.01197-.3241.18669-.619.49202-.7304.30532-.1114.64782-.0139.84825.2415l1.00019 1.1974 4.31085 5.1591c.3036.3578.8566.3578 1.1602 0l4.3109-5.1591 1.2602-1.4968c.2015-.2452.5359-.3371.8348-.2295s.4974.3915.4955.7085v6.2069c0 .4188-.3404.7583-.7602.7583h-1.2702c-.2917-.0014-.5578.166-.6822.4293-.1245.2632-.0846.5745.1021.7982l1.4102 1.6564 1.2003 1.437z" fill="#fff" fill-opacity=".9" fill-rule="evenodd"/></svg>