<svg xmlns="http://www.w3.org/2000/svg" viewBox="0 0 24 24"
  xmlns:xlink="http://www.w3.org/1999/xlink">
  <path fill="currentColor" d="m21.1709906 15.39799992-5.912-9.854c-.776-1.293-1.963-2.033-3.25899-2.033-1.296 0-2.483.74-3.259 2.031l-5.912001 9.856c-.786 1.309-.872 2.705-.235 3.83.636001 1.126 1.878001 1.772 3.406001 1.772h11.99999c1.528 0 2.77-.646 3.406-1.771.637-1.125.551-2.521-.235-3.831zm-9.17104 2.7021c-.854 0-1.55005-.6951-1.55005-1.5491 0-.855.69505-1.551 1.55005-1.551.85504 0 1.55004.696 1.55004 1.551 0 .854-.696 1.5491-1.55004 1.5491zm1.63304-7.9751q-.011.031-1.401 3.468c-.038.094-.12999.156-.23099.156s-.193-.062-.231-.156l-1.391-3.438c-.08402-.20821-.12779-.43047-.129-.655 0-.965.785-1.75 1.75-1.75 1.22489.00314 2.06859 1.23015 1.63299 2.375z"/>
</svg>
